<mxfile host="app.diagrams.net" modified="2021-01-02T19:59:36.472Z" agent="5.0 (Windows NT 10.0; Win64; x64) AppleWebKit/537.36 (KHTML, like Gecko) Chrome/87.0.4280.88 Safari/537.36" etag="l52W0QGZG1a6CPpKPbAM" version="14.1.7" type="github">
  <diagram id="523TajJfXd_A70vdMx1W" name="Page-1">
    <mxGraphModel dx="1662" dy="1122" grid="1" gridSize="10" guides="1" tooltips="1" connect="1" arrows="1" fold="1" page="1" pageScale="1" pageWidth="827" pageHeight="1169" math="0" shadow="0">
      <root>
        <mxCell id="0" />
        <mxCell id="1" parent="0" />
        <mxCell id="yOdMG2tYJBsYnfzHb0X7-1" value="&lt;span style=&quot;background-color: rgb(255 , 255 , 255)&quot;&gt;&lt;span style=&quot;color: rgb(96 , 98 , 102) ; font-size: 14px ; text-align: left&quot;&gt;Patients with type A aortic dissection admitted to the Emergency Department from&amp;nbsp;&lt;/span&gt;&lt;span style=&quot;color: rgb(96 , 98 , 102) ; font-size: 14px ; text-align: left&quot;&gt;January 1st, 2018 to October 25th, 2019 at&amp;nbsp;&lt;/span&gt;&lt;/span&gt;&lt;span style=&quot;color: rgb(96 , 98 , 102) ; font-size: 14px ; text-align: left&quot;&gt;&lt;span style=&quot;background-color: rgb(255 , 255 , 255)&quot;&gt;Beijing Anzhen Hospital&lt;br&gt;N=790&lt;/span&gt;&lt;br&gt;&lt;/span&gt;" style="rounded=1;whiteSpace=wrap;html=1;fontFamily=Times New Roman;" vertex="1" parent="1">
          <mxGeometry x="220" y="50" width="360" height="100" as="geometry" />
        </mxCell>
        <mxCell id="yOdMG2tYJBsYnfzHb0X7-2" value="&lt;font&gt;&lt;font color=&quot;#330000&quot;&gt;&lt;span style=&quot;font-size: 14px&quot;&gt;Patients who died before admission for surgery and received emergency surgery&lt;br&gt;&lt;/span&gt;N=517&lt;/font&gt;&lt;br&gt;&lt;/font&gt;" style="rounded=1;whiteSpace=wrap;html=1;fontFamily=Times New Roman;" vertex="1" parent="1">
          <mxGeometry x="240" y="290" width="320" height="80" as="geometry" />
        </mxCell>
        <mxCell id="yOdMG2tYJBsYnfzHb0X7-3" value="" style="endArrow=classic;html=1;fontFamily=Times New Roman;exitX=0.5;exitY=1;exitDx=0;exitDy=0;entryX=0.5;entryY=0;entryDx=0;entryDy=0;" edge="1" parent="1" source="yOdMG2tYJBsYnfzHb0X7-1" target="yOdMG2tYJBsYnfzHb0X7-2">
          <mxGeometry width="50" height="50" relative="1" as="geometry">
            <mxPoint x="390" y="580" as="sourcePoint" />
            <mxPoint x="440" y="530" as="targetPoint" />
            <Array as="points" />
          </mxGeometry>
        </mxCell>
        <mxCell id="yOdMG2tYJBsYnfzHb0X7-4" value="&lt;div style=&quot;text-align: left ; font-size: 14px&quot;&gt;&lt;span class=&quot;fontstyle0&quot;&gt;&amp;nbsp; Patients excluded&lt;/span&gt;&lt;span&gt;&amp;nbsp;：&lt;/span&gt;&lt;/div&gt;&lt;span style=&quot;font-size: 14px&quot;&gt;Choose conservative medical treatment or leave the hospital with surgical contraindications&lt;br&gt;N=273&lt;br&gt;&lt;/span&gt;" style="rounded=1;whiteSpace=wrap;html=1;fontFamily=Times New Roman;" vertex="1" parent="1">
          <mxGeometry x="460" y="160" width="300" height="100" as="geometry" />
        </mxCell>
        <mxCell id="yOdMG2tYJBsYnfzHb0X7-5" value="&lt;p class=&quot;MsoNormal&quot; align=&quot;center&quot; style=&quot;font-size: 14px&quot;&gt;&lt;span class=&quot;fontstyle0&quot;&gt;Patients finally were included in the analysis&lt;br&gt;N=498&lt;/span&gt;&lt;br style=&quot;line-height: normal&quot;&gt;&lt;/p&gt;" style="rounded=1;whiteSpace=wrap;html=1;fontFamily=Times New Roman;" vertex="1" parent="1">
          <mxGeometry x="250" y="490" width="300" height="60" as="geometry" />
        </mxCell>
        <mxCell id="yOdMG2tYJBsYnfzHb0X7-7" value="" style="endArrow=classic;html=1;fontFamily=Times New Roman;entryX=0;entryY=0.5;entryDx=0;entryDy=0;" edge="1" parent="1" target="yOdMG2tYJBsYnfzHb0X7-4">
          <mxGeometry width="50" height="50" relative="1" as="geometry">
            <mxPoint x="400" y="210" as="sourcePoint" />
            <mxPoint x="440" y="500" as="targetPoint" />
          </mxGeometry>
        </mxCell>
        <mxCell id="yOdMG2tYJBsYnfzHb0X7-8" value="" style="endArrow=classic;html=1;fontFamily=Times New Roman;exitX=0.5;exitY=1;exitDx=0;exitDy=0;entryX=0.5;entryY=0;entryDx=0;entryDy=0;" edge="1" parent="1" source="yOdMG2tYJBsYnfzHb0X7-2" target="yOdMG2tYJBsYnfzHb0X7-5">
          <mxGeometry width="50" height="50" relative="1" as="geometry">
            <mxPoint x="390" y="490" as="sourcePoint" />
            <mxPoint x="440" y="440" as="targetPoint" />
          </mxGeometry>
        </mxCell>
        <mxCell id="yOdMG2tYJBsYnfzHb0X7-9" value="&lt;div style=&quot;text-align: left ; font-size: 14px&quot;&gt;&lt;font style=&quot;font-size: 14px&quot;&gt;&lt;span class=&quot;fontstyle0&quot;&gt;&amp;nbsp; Patients excluded&lt;/span&gt;&amp;nbsp;：&lt;/font&gt;&lt;/div&gt;&lt;font style=&quot;font-size: 14px&quot;&gt;Missing imaging and laboratory data&lt;br&gt;N=19&lt;/font&gt;" style="rounded=1;whiteSpace=wrap;html=1;fontFamily=Times New Roman;" vertex="1" parent="1">
          <mxGeometry x="460" y="380" width="210" height="80" as="geometry" />
        </mxCell>
        <mxCell id="yOdMG2tYJBsYnfzHb0X7-10" value="" style="endArrow=classic;html=1;fontFamily=Times New Roman;entryX=0;entryY=0.5;entryDx=0;entryDy=0;" edge="1" parent="1" target="yOdMG2tYJBsYnfzHb0X7-9">
          <mxGeometry width="50" height="50" relative="1" as="geometry">
            <mxPoint x="400" y="420" as="sourcePoint" />
            <mxPoint x="440" y="410" as="targetPoint" />
          </mxGeometry>
        </mxCell>
        <mxCell id="yOdMG2tYJBsYnfzHb0X7-11" value="&lt;div style=&quot;text-align: left&quot;&gt;&lt;span style=&quot;background-color: rgb(255 , 255 , 255) ; font-size: 14px&quot;&gt;&lt;font color=&quot;#330000&quot;&gt;Divided into two groups：&lt;/font&gt;&lt;/span&gt;&lt;/div&gt;&lt;span style=&quot;font-size: 14px ; background-color: rgb(255 , 255 , 255)&quot;&gt;&lt;font color=&quot;#330000&quot;&gt;&lt;div style=&quot;text-align: left&quot;&gt;Received operation group (n = 426)&lt;/div&gt;Preoperative death group (n = 71)&lt;/font&gt;&lt;/span&gt;" style="rounded=1;whiteSpace=wrap;html=1;fontFamily=Times New Roman;align=center;" vertex="1" parent="1">
          <mxGeometry x="265" y="584.5" width="270" height="65.5" as="geometry" />
        </mxCell>
        <mxCell id="yOdMG2tYJBsYnfzHb0X7-12" value="" style="endArrow=classic;html=1;fontFamily=Times New Roman;exitX=0.5;exitY=1;exitDx=0;exitDy=0;entryX=0.5;entryY=0;entryDx=0;entryDy=0;" edge="1" parent="1" source="yOdMG2tYJBsYnfzHb0X7-5" target="yOdMG2tYJBsYnfzHb0X7-11">
          <mxGeometry width="50" height="50" relative="1" as="geometry">
            <mxPoint x="390" y="460" as="sourcePoint" />
            <mxPoint x="440" y="410" as="targetPoint" />
          </mxGeometry>
        </mxCell>
      </root>
    </mxGraphModel>
  </diagram>
</mxfile>
